<svg width="56" height="34" viewBox="0 0 56 34" fill="none" xmlns="http://www.w3.org/2000/svg">
<g clip-path="url(#clip0_317_86)">
<path fill-rule="evenodd" clip-rule="evenodd" d="M13.6019 3.87119C8.32918 4.07945 5.36356 5.6795 4.45178 7.69726C3.54001 9.715 4.3748 12.8304 7.87804 16.5379C10.6434 19.4645 14.7777 22.4075 19.8595 24.8488L17.8245 28.194C12.4425 25.5873 7.94005 22.4018 4.81355 19.093C1.0509 15.111 -1.20833 10.372 0.679958 6.1933C2.56825 2.01456 7.76665 0.249208 13.4298 0.0255301C19.2637 -0.204895 26.4218 1.12537 33.5819 3.98031C38.5279 5.95245 42.9161 8.42935 46.4347 11.1248L43.9739 14.2068C40.784 11.7413 36.6971 9.40393 31.9808 7.52335C25.2534 4.84094 18.7038 3.66968 13.6019 3.87119ZM48.6217 18.6268C51.2129 21.7962 51.7807 24.4539 50.9709 26.2459C50.0591 28.2637 47.0935 29.8637 41.8209 30.0719C38.1456 30.2171 33.719 29.6499 29.0159 28.3186L27.3923 31.877C32.6274 33.4032 37.6732 34.0882 41.993 33.9176C47.6561 33.694 52.8545 31.9286 54.7428 27.7499C56.3779 24.1313 54.9031 20.0928 52.0351 16.4893L48.6217 18.6268Z" fill="#1C1C1D"/>
<path fill-rule="evenodd" clip-rule="evenodd" d="M39.6098 0.0159795V3.8672C40.3725 3.84169 41.1107 3.84314 41.8209 3.87119C47.0935 4.07945 50.0591 5.6795 50.9709 7.69726C51.8827 9.715 51.048 12.8304 47.5447 16.5379C44.1549 20.1253 38.7082 23.7374 31.9808 26.4198C25.2534 29.1022 18.7038 30.2734 13.6019 30.0719C8.32918 29.8637 5.36356 28.2637 4.45178 26.2459C3.54001 24.2282 4.37479 21.1128 7.87804 17.4052C11.2678 13.8178 16.7145 10.2058 23.4419 7.52335C25.0312 6.88967 26.6105 6.34034 28.1631 5.8735L27.0841 2.15689C25.3494 2.67281 23.5952 3.28079 21.8409 3.98031C14.6808 6.83527 8.6897 10.748 4.81355 14.8502C1.0509 18.8322 -1.20833 23.5711 0.679958 27.7499C2.56825 31.9286 7.76665 33.694 13.4298 33.9176C19.2637 34.148 26.4218 32.8178 33.5819 29.9628C40.7419 27.1079 46.733 23.1952 50.6092 19.093C54.3718 15.111 56.6311 10.372 54.7428 6.1933C52.8545 2.01456 47.6561 0.249208 41.993 0.0255302C41.2208 -0.00497081 40.4253 -0.00812656 39.6098 0.0159795Z" fill="#1C1C1D"/>
<path d="M31.6422 14.2178L22.95 22.0276" stroke="#1C1C1D" stroke-width="2"/>
<path d="M23.4471 14.2178L32.1393 22.0276" stroke="#1C1C1D" stroke-width="2"/>
<path d="M20.0325 17.8992H35.0569" stroke="#1C1C1D" stroke-width="2"/>
<path d="M27.5447 11.7634V19.1265" stroke="#1C1C1D" stroke-width="2"/>
</g>
<defs>
<clipPath id="clip0_317_86">
<rect width="56" height="34" fill="white"/>
</clipPath>
</defs>
</svg>
